<?xml version="1.0" encoding="utf-8"?>
<!-- Generator: Adobe Illustrator 24.0.2, SVG Export Plug-In . SVG Version: 6.00 Build 0)  -->
<svg version="1.1" id="Layer_1" xmlns="http://www.w3.org/2000/svg" xmlns:xlink="http://www.w3.org/1999/xlink" x="0px" y="0px"
	 viewBox="0 0 651.8 396.8" style="enable-background:new 0 0 651.8 396.8;" xml:space="preserve">
<style type="text/css">
	.st0{fill-rule:evenodd;clip-rule:evenodd;fill:#F2F2F2;}
	.st1{fill:none;stroke:#000000;stroke-width:1.4;stroke-linecap:round;stroke-linejoin:round;stroke-miterlimit:10;}
	.st2{clip-path:url(#SVGID_2_);}
	.st3{font-family:'ArialMT';}
	.st4{font-size:9.775px;}
	.st5{clip-path:url(#SVGID_4_);}
	.st6{clip-path:url(#SVGID_6_);}
	.st7{fill-rule:evenodd;clip-rule:evenodd;fill:#FFFFFF;}
	.st8{clip-path:url(#SVGID_8_);}
	.st9{font-size:9.75px;}
	.st10{clip-path:url(#SVGID_10_);}
	
		.st11{fill:none;stroke:#000000;stroke-width:1.4;stroke-linecap:round;stroke-linejoin:round;stroke-miterlimit:10;stroke-dasharray:9.8,7;}
	.st12{clip-path:url(#SVGID_12_);}
	.st13{clip-path:url(#SVGID_14_);}
	.st14{clip-path:url(#SVGID_16_);}
	.st15{clip-path:url(#SVGID_24_);}
	.st16{clip-path:url(#SVGID_26_);}
	.st17{clip-path:url(#SVGID_28_);}
	.st18{fill:none;stroke:#000000;stroke-width:1.5;stroke-linecap:round;stroke-linejoin:round;stroke-miterlimit:10;}
	.st19{clip-path:url(#SVGID_30_);}
	.st20{clip-path:url(#SVGID_32_);}
	.st21{clip-path:url(#SVGID_34_);}
	.st22{clip-path:url(#SVGID_36_);}
	
		.st23{clip-path:url(#SVGID_38_);fill:none;stroke:#000000;stroke-width:0.72;stroke-linecap:round;stroke-linejoin:round;stroke-miterlimit:10;}
	.st24{clip-path:url(#SVGID_40_);fill-rule:evenodd;clip-rule:evenodd;}
	.st25{clip-path:url(#SVGID_42_);fill-rule:evenodd;clip-rule:evenodd;}
	.st26{fill:none;stroke:#000000;stroke-width:0.72;stroke-linecap:round;stroke-linejoin:round;stroke-miterlimit:10;}
	.st27{fill-rule:evenodd;clip-rule:evenodd;}
	.st28{clip-path:url(#SVGID_44_);}
	.st29{clip-path:url(#SVGID_46_);}
	.st30{clip-path:url(#SVGID_48_);}
	.st31{clip-path:url(#SVGID_50_);}
	
		.st32{clip-path:url(#SVGID_52_);fill:none;stroke:#000000;stroke-width:0.72;stroke-linecap:round;stroke-linejoin:round;stroke-miterlimit:10;}
	.st33{clip-path:url(#SVGID_54_);fill-rule:evenodd;clip-rule:evenodd;}
	.st34{clip-path:url(#SVGID_56_);fill-rule:evenodd;clip-rule:evenodd;}
	
		.st35{clip-path:url(#SVGID_58_);fill:none;stroke:#000000;stroke-width:0.72;stroke-linecap:round;stroke-linejoin:round;stroke-miterlimit:10;}
	.st36{clip-path:url(#SVGID_60_);fill-rule:evenodd;clip-rule:evenodd;}
	.st37{clip-path:url(#SVGID_62_);fill-rule:evenodd;clip-rule:evenodd;}
	
		.st38{clip-path:url(#SVGID_64_);fill:none;stroke:#000000;stroke-width:0.72;stroke-linecap:round;stroke-linejoin:round;stroke-miterlimit:10;}
	.st39{clip-path:url(#SVGID_66_);fill-rule:evenodd;clip-rule:evenodd;}
	.st40{clip-path:url(#SVGID_68_);fill-rule:evenodd;clip-rule:evenodd;}
	.st41{clip-path:url(#SVGID_70_);}
	.st42{clip-path:url(#SVGID_78_);}
	.st43{clip-path:url(#SVGID_80_);}
	.st44{clip-path:url(#SVGID_82_);}
	.st45{clip-path:url(#SVGID_84_);}
	
		.st46{clip-path:url(#SVGID_86_);fill:none;stroke:#000000;stroke-width:0.72;stroke-linecap:round;stroke-linejoin:round;stroke-miterlimit:10;}
	.st47{clip-path:url(#SVGID_88_);fill-rule:evenodd;clip-rule:evenodd;}
	.st48{clip-path:url(#SVGID_90_);fill-rule:evenodd;clip-rule:evenodd;}
	.st49{clip-path:url(#SVGID_92_);}
	
		.st50{clip-path:url(#SVGID_94_);fill:none;stroke:#000000;stroke-width:0.72;stroke-linecap:round;stroke-linejoin:round;stroke-miterlimit:10;}
	.st51{clip-path:url(#SVGID_96_);fill-rule:evenodd;clip-rule:evenodd;}
	.st52{clip-path:url(#SVGID_98_);fill-rule:evenodd;clip-rule:evenodd;}
	
		.st53{clip-path:url(#SVGID_100_);fill:none;stroke:#000000;stroke-width:0.72;stroke-linecap:round;stroke-linejoin:round;stroke-miterlimit:10;}
	.st54{clip-path:url(#SVGID_102_);fill-rule:evenodd;clip-rule:evenodd;}
	.st55{clip-path:url(#SVGID_104_);fill-rule:evenodd;clip-rule:evenodd;}
	.st56{clip-path:url(#SVGID_106_);}
	.st57{clip-path:url(#SVGID_108_);}
	.st58{clip-path:url(#SVGID_110_);}
	.st59{clip-path:url(#SVGID_112_);}
	.st60{clip-path:url(#SVGID_114_);}
	.st61{clip-path:url(#SVGID_116_);}
	.st62{clip-path:url(#SVGID_118_);}
	.st63{clip-path:url(#SVGID_120_);}
	
		.st64{clip-path:url(#SVGID_122_);fill:none;stroke:#000000;stroke-width:0.72;stroke-linecap:round;stroke-linejoin:round;stroke-miterlimit:10;}
	.st65{clip-path:url(#SVGID_124_);fill-rule:evenodd;clip-rule:evenodd;}
	.st66{clip-path:url(#SVGID_126_);fill-rule:evenodd;clip-rule:evenodd;}
	.st67{clip-path:url(#SVGID_128_);}
	.st68{font-size:9.6662px;}
</style>
<rect x="150.4" y="1.8" class="st0" width="124.7" height="87.2"/>
<rect x="150.4" y="1.8" class="st1" width="124.7" height="87.2"/>
<g>
	<defs>
		<rect id="SVGID_1_" x="0" width="651.8" height="396.8"/>
	</defs>
	<clipPath id="SVGID_2_">
		<use xlink:href="#SVGID_1_"  style="overflow:visible;"/>
	</clipPath>
	<g class="st2">
		<text transform="matrix(1 0 0 1 178.23 16.7998)"><tspan x="0" y="0" class="st3 st4">M</tspan><tspan x="8.3" y="0" class="st3 st4">o</tspan><tspan x="14.3" y="0" class="st3 st4">ng</tspan><tspan x="24.8" y="0" class="st3 st4">o</tspan><tspan x="30.8" y="0" class="st3 st4">D</tspan><tspan x="37.6" y="0" class="st3 st4">B</tspan><tspan x="44.4" y="0" class="st3 st4"> </tspan><tspan x="47.4" y="0" class="st3 st4">n</tspan><tspan x="52.6" y="0" class="st3 st4">o</tspan><tspan x="58.6" y="0" class="st3 st4">d</tspan><tspan x="63.9" y="0" class="st3 st4">e</tspan></text>
	</g>
</g>
<rect x="150.4" y="128.3" class="st0" width="226.8" height="163"/>
<rect x="150.4" y="128.3" class="st1" width="226.8" height="163"/>
<g>
	<defs>
		<rect id="SVGID_3_" x="0" width="651.8" height="396.8"/>
	</defs>
	<clipPath id="SVGID_4_">
		<use xlink:href="#SVGID_3_"  style="overflow:visible;"/>
	</clipPath>
	<g class="st5">
		<text transform="matrix(1 0 0 1 235.5298 143.52)"><tspan x="0" y="0" class="st3 st4">C</tspan><tspan x="7.5" y="0" class="st3 st4">o</tspan><tspan x="12.7" y="0" class="st3 st4">m</tspan><tspan x="21" y="0" class="st3 st4">p</tspan><tspan x="26.9" y="0" class="st3 st4">u</tspan><tspan x="32.2" y="0" class="st3 st4">t</tspan><tspan x="35.2" y="0" class="st3 st4">e</tspan><tspan x="40.4" y="0" class="st3 st4"> </tspan><tspan x="43.4" y="0" class="st3 st4">n</tspan><tspan x="48.7" y="0" class="st3 st4">o</tspan><tspan x="54.7" y="0" class="st3 st4">de</tspan><tspan x="65.2" y="0" class="st3 st4"> </tspan></text>
	</g>
</g>
<g>
	<defs>
		<rect id="SVGID_5_" x="0" width="651.8" height="396.8"/>
	</defs>
	<clipPath id="SVGID_6_">
		<use xlink:href="#SVGID_5_"  style="overflow:visible;"/>
	</clipPath>
	<g class="st6">
		<text transform="matrix(1 0 0 1 303.98 143.52)" class="st3 st4">1</text>
	</g>
</g>
<rect x="280.8" y="150.9" class="st7" width="79.4" height="45.4"/>
<rect x="280.8" y="150.9" class="st1" width="79.4" height="45.4"/>
<g>
	<defs>
		<rect id="SVGID_7_" x="0" width="651.8" height="396.8"/>
	</defs>
	<clipPath id="SVGID_8_">
		<use xlink:href="#SVGID_7_"  style="overflow:visible;"/>
	</clipPath>
	<g class="st8">
		<text transform="matrix(1 0 0 1 296.1001 170.9502)"><tspan x="0" y="0" class="st3 st9">P</tspan><tspan x="6.7" y="0" class="st3 st9">r</tspan><tspan x="9.7" y="0" class="st3 st9">o</tspan><tspan x="15.7" y="0" class="st3 st9">c</tspan><tspan x="20.2" y="0" class="st3 st9">e</tspan><tspan x="26.2" y="0" class="st3 st9">s</tspan><tspan x="30.7" y="0" class="st3 st9">s</tspan><tspan x="36" y="0" class="st3 st9">i</tspan><tspan x="38.2" y="0" class="st3 st9">n</tspan><tspan x="44.2" y="0" class="st3 st9">g</tspan></text>
	</g>
</g>
<g>
	<defs>
		<rect id="SVGID_9_" x="0" width="651.8" height="396.8"/>
	</defs>
	<clipPath id="SVGID_10_">
		<use xlink:href="#SVGID_9_"  style="overflow:visible;"/>
	</clipPath>
	<g class="st10">
		<text transform="matrix(1 0 0 1 305 182.9702)"><tspan x="0" y="0" class="st3 st9">s</tspan><tspan x="5.2" y="0" class="st3 st9">e</tspan><tspan x="10.5" y="0" class="st3 st9">r</tspan><tspan x="14.2" y="0" class="st3 st9">v</tspan><tspan x="18.7" y="0" class="st3 st9">i</tspan><tspan x="20.9" y="0" class="st3 st9">c</tspan><tspan x="26.2" y="0" class="st3 st9">e</tspan></text>
	</g>
</g>
<rect x="150.4" y="309.7" class="st0" width="498.9" height="85"/>
<rect x="150.4" y="309.7" class="st11" width="498.9" height="85"/>
<g>
	<defs>
		<rect id="SVGID_11_" x="0" width="651.8" height="396.8"/>
	</defs>
	<clipPath id="SVGID_12_">
		<use xlink:href="#SVGID_11_"  style="overflow:visible;"/>
	</clipPath>
	<g class="st12">
		<text transform="matrix(1 0 0 1 588.2002 355.875)"><tspan x="0" y="0" class="st3 st9">G</tspan><tspan x="7.5" y="0" class="st3 st9">l</tspan><tspan x="9.7" y="0" class="st3 st9">u</tspan><tspan x="15.7" y="0" class="st3 st9">s</tspan><tspan x="20.2" y="0" class="st3 st9">t</tspan><tspan x="23.2" y="0" class="st3 st9">e</tspan><tspan x="29.2" y="0" class="st3 st9">r</tspan><tspan x="32.2" y="0" class="st3 st9"> </tspan><tspan x="35.2" y="0" class="st3 st9">F</tspan><tspan x="41.2" y="0" class="st3 st9">S</tspan></text>
	</g>
</g>
<rect x="3" y="128.3" class="st0" width="124.7" height="163"/>
<rect x="3" y="128.3" class="st1" width="124.7" height="163"/>
<g>
	<defs>
		<rect id="SVGID_13_" x="0" width="651.8" height="396.8"/>
	</defs>
	<clipPath id="SVGID_14_">
		<use xlink:href="#SVGID_13_"  style="overflow:visible;"/>
	</clipPath>
	<g class="st13">
		<text transform="matrix(1 0 0 1 45.7002 143.52)"><tspan x="0" y="0" class="st3 st4">G</tspan><tspan x="7.5" y="0" class="st3 st4">a</tspan><tspan x="13.5" y="0" class="st3 st4">t</tspan><tspan x="15.7" y="0" class="st3 st4">e</tspan><tspan x="21.7" y="0" class="st3 st4">w</tspan><tspan x="29.2" y="0" class="st3 st4">a</tspan><tspan x="34.5" y="0" class="st3 st4">y</tspan></text>
	</g>
</g>
<rect x="173.1" y="30.1" class="st7" width="79.4" height="45.4"/>
<rect x="173.1" y="30.1" class="st1" width="79.4" height="45.4"/>
<g>
	<defs>
		<rect id="SVGID_15_" x="0" width="651.8" height="396.8"/>
	</defs>
	<clipPath id="SVGID_16_">
		<use xlink:href="#SVGID_15_"  style="overflow:visible;"/>
	</clipPath>
	<g class="st14">
		<text transform="matrix(1 0 0 1 190.75 55.8999)"><tspan x="0" y="0" class="st3 st4">M</tspan><tspan x="8.3" y="0" class="st3 st4">o</tspan><tspan x="14.3" y="0" class="st3 st4">ng</tspan><tspan x="24.8" y="0" class="st3 st4">o</tspan><tspan x="30.8" y="0" class="st3 st4">D</tspan><tspan x="37.6" y="0" class="st3 st4">B</tspan></text>
	</g>
</g>
<rect x="173.1" y="156.6" class="st7" width="79.4" height="45.4"/>
<rect x="173.1" y="156.6" class="st1" width="79.4" height="45.4"/>
<g>
	<defs>
		<rect id="SVGID_17_" x="0" width="651.8" height="396.8"/>
	</defs>
	<clipPath id="SVGID_18_">
		<use xlink:href="#SVGID_17_"  style="overflow:visible;"/>
	</clipPath>
</g>
<g>
	<defs>
		<rect id="SVGID_19_" x="0" width="651.8" height="396.8"/>
	</defs>
	<clipPath id="SVGID_20_">
		<use xlink:href="#SVGID_19_"  style="overflow:visible;"/>
	</clipPath>
</g>
<g>
	<defs>
		<rect id="SVGID_21_" x="0" width="651.8" height="396.8"/>
	</defs>
	<clipPath id="SVGID_22_">
		<use xlink:href="#SVGID_21_"  style="overflow:visible;"/>
	</clipPath>
</g>
<rect x="25.7" y="156.6" class="st7" width="79.4" height="45.4"/>
<rect x="25.7" y="156.6" class="st1" width="79.4" height="45.4"/>
<g>
	<defs>
		<rect id="SVGID_23_" x="0" width="651.8" height="396.8"/>
	</defs>
	<clipPath id="SVGID_24_">
		<use xlink:href="#SVGID_23_"  style="overflow:visible;"/>
	</clipPath>
	<g class="st15">
		<text transform="matrix(1 0 0 1 49.6001 182.6201)"><tspan x="0" y="0" class="st3 st4">N</tspan><tspan x="7.5" y="0" class="st3 st4">G</tspan><tspan x="15" y="0" class="st3 st4">I</tspan><tspan x="18" y="0" class="st3 st4">N</tspan><tspan x="24.7" y="0" class="st3 st4">X</tspan></text>
	</g>
</g>
<rect x="25.7" y="224.6" class="st7" width="79.4" height="45.4"/>
<rect x="25.7" y="224.6" class="st1" width="79.4" height="45.4"/>
<g>
	<defs>
		<rect id="SVGID_25_" x="0" width="651.8" height="396.8"/>
	</defs>
	<clipPath id="SVGID_26_">
		<use xlink:href="#SVGID_25_"  style="overflow:visible;"/>
	</clipPath>
	<g class="st16">
		<text transform="matrix(1 0 0 1 49.3252 244.7695)"><tspan x="0" y="0" class="st3 st4">G</tspan><tspan x="7.5" y="0" class="st3 st4">l</tspan><tspan x="9.7" y="0" class="st3 st4">u</tspan><tspan x="15.7" y="0" class="st3 st4">s</tspan><tspan x="20.2" y="0" class="st3 st4">t</tspan><tspan x="23.2" y="0" class="st3 st4">e</tspan><tspan x="29.2" y="0" class="st3 st4">r</tspan></text>
	</g>
</g>
<g>
	<defs>
		<rect id="SVGID_27_" x="0" width="651.8" height="396.8"/>
	</defs>
	<clipPath id="SVGID_28_">
		<use xlink:href="#SVGID_27_"  style="overflow:visible;"/>
	</clipPath>
	<g class="st17">
		<text transform="matrix(1 0 0 1 53.7749 256.7998)"><tspan x="0" y="0" class="st3 st4">c</tspan><tspan x="5.2" y="0" class="st3 st4">li</tspan><tspan x="9.7" y="0" class="st3 st4">en</tspan><tspan x="20.2" y="0" class="st3 st4">t</tspan></text>
	</g>
</g>
<path class="st7" d="M195.8,357.3c0-4.3,7.6-7.8,17-7.8c9.4,0,17,3.5,17,7.8s-7.6,7.8-17,7.8C203.4,365.1,195.8,361.6,195.8,357.3z"
	/>
<path class="st18" d="M195.8,357.3c0-4.3,7.6-7.8,17-7.8c9.4,0,17,3.5,17,7.8s-7.6,7.8-17,7.8C203.4,365.1,195.8,361.6,195.8,357.3z
	"/>
<path class="st7" d="M195.8,349.8c0-4.3,7.6-7.8,17-7.8c9.4,0,17,3.5,17,7.8s-7.6,7.8-17,7.8C203.4,357.6,195.8,354.1,195.8,349.8z"
	/>
<path class="st18" d="M195.8,349.8c0-4.3,7.6-7.8,17-7.8c9.4,0,17,3.5,17,7.8s-7.6,7.8-17,7.8C203.4,357.6,195.8,354.1,195.8,349.8z
	"/>
<path class="st7" d="M195.8,342.4c0-4.3,7.6-7.8,17-7.8c9.4,0,17,3.5,17,7.8c0,4.3-7.6,7.8-17,7.8
	C203.4,350.2,195.8,346.7,195.8,342.4z"/>
<path class="st18" d="M195.8,342.4c0-4.3,7.6-7.8,17-7.8c9.4,0,17,3.5,17,7.8c0,4.3-7.6,7.8-17,7.8
	C203.4,350.2,195.8,346.7,195.8,342.4z"/>
<path class="st7" d="M195.8,334.9c0-4.3,7.6-7.8,17-7.8c9.4,0,17,3.5,17,7.8s-7.6,7.8-17,7.8C203.4,342.7,195.8,339.2,195.8,334.9z"
	/>
<path class="st18" d="M195.8,334.9c0-4.3,7.6-7.8,17-7.8c9.4,0,17,3.5,17,7.8s-7.6,7.8-17,7.8C203.4,342.7,195.8,339.2,195.8,334.9z
	"/>
<g>
	<defs>
		<rect id="SVGID_29_" x="0" width="651.8" height="396.8"/>
	</defs>
	<clipPath id="SVGID_30_">
		<use xlink:href="#SVGID_29_"  style="overflow:visible;"/>
	</clipPath>
	<g class="st19">
		<text transform="matrix(1 0 0 1 180.75 381)"><tspan x="0" y="0" class="st3 st4">B</tspan><tspan x="6.7" y="0" class="st3 st4">l</tspan><tspan x="9" y="0" class="st3 st4">o</tspan><tspan x="14.2" y="0" class="st3 st4">c</tspan><tspan x="19.5" y="0" class="st3 st4">k</tspan><tspan x="24.7" y="0" class="st3 st4"> </tspan><tspan x="27" y="0" class="st3 st4">d</tspan><tspan x="32.9" y="0" class="st3 st4">e</tspan><tspan x="38.2" y="0" class="st3 st4">v</tspan><tspan x="43.4" y="0" class="st3 st4">i</tspan><tspan x="45.6" y="0" class="st3 st4">c</tspan><tspan x="50.2" y="0" class="st3 st4">e</tspan><tspan x="56.1" y="0" class="st3 st4"> </tspan></text>
	</g>
</g>
<g>
	<defs>
		<rect id="SVGID_31_" x="0" width="651.8" height="396.8"/>
	</defs>
	<clipPath id="SVGID_32_">
		<use xlink:href="#SVGID_31_"  style="overflow:visible;"/>
	</clipPath>
	<g class="st20">
		<text transform="matrix(1 0 0 1 239.7202 381)" class="st3 st4">1</text>
	</g>
</g>
<rect x="173.1" y="224.6" class="st7" width="79.4" height="45.4"/>
<rect x="173.1" y="224.6" class="st1" width="79.4" height="45.4"/>
<g>
	<defs>
		<rect id="SVGID_33_" x="0" width="651.8" height="396.8"/>
	</defs>
	<clipPath id="SVGID_34_">
		<use xlink:href="#SVGID_33_"  style="overflow:visible;"/>
	</clipPath>
	<g class="st21">
		<text transform="matrix(1 0 0 1 196.8799 244.7695)"><tspan x="0" y="0" class="st3 st4">G</tspan><tspan x="7.5" y="0" class="st3 st4">l</tspan><tspan x="9.8" y="0" class="st3 st4">u</tspan><tspan x="15.8" y="0" class="st3 st4">s</tspan><tspan x="20.3" y="0" class="st3 st4">t</tspan><tspan x="23.3" y="0" class="st3 st4">e</tspan><tspan x="29.3" y="0" class="st3 st4">r</tspan></text>
	</g>
</g>
<g>
	<defs>
		<rect id="SVGID_35_" x="0" width="651.8" height="396.8"/>
	</defs>
	<clipPath id="SVGID_36_">
		<use xlink:href="#SVGID_35_"  style="overflow:visible;"/>
	</clipPath>
	<g class="st22">
		<text transform="matrix(1 0 0 1 199.1001 256.7998)"><tspan x="0" y="0" class="st3 st4">s</tspan><tspan x="5.3" y="0" class="st3 st4">e</tspan><tspan x="10.5" y="0" class="st3 st4">r</tspan><tspan x="14.3" y="0" class="st3 st4">v</tspan><tspan x="18.8" y="0" class="st3 st4">e</tspan><tspan x="24.8" y="0" class="st3 st4">r</tspan></text>
	</g>
</g>
<g>
	<defs>
		<polyline id="SVGID_37_" points="0,0 651.8,0 651.8,396.7 0,396.7 		"/>
	</defs>
	<clipPath id="SVGID_38_">
		<use xlink:href="#SVGID_37_"  style="overflow:visible;"/>
	</clipPath>
	<line class="st23" x1="212.8" y1="322.2" x2="212.8" y2="274.9"/>
</g>
<g>
	<defs>
		<polyline id="SVGID_39_" points="0,0 651.8,0 651.8,396.7 0,396.7 		"/>
	</defs>
	<clipPath id="SVGID_40_">
		<use xlink:href="#SVGID_39_"  style="overflow:visible;"/>
	</clipPath>
	<path class="st24" d="M212.8,327.1l-3.2-6.5c2,1,4.4,1,6.5,0L212.8,327.1z"/>
</g>
<g>
	<defs>
		<polyline id="SVGID_41_" points="0,0 651.8,0 651.8,396.7 0,396.7 		"/>
	</defs>
	<clipPath id="SVGID_42_">
		<use xlink:href="#SVGID_41_"  style="overflow:visible;"/>
	</clipPath>
	<path class="st25" d="M212.8,270l3.2,6.5c-2-1-4.4-1-6.5,0L212.8,270z"/>
</g>
<line class="st26" x1="110" y1="179.3" x2="168.2" y2="179.3"/>
<path class="st27" d="M105.1,179.3l6.5-3.2c-1,2-1,4.4,0,6.5L105.1,179.3z"/>
<path class="st27" d="M173.1,179.3l-6.5,3.2c1-2,1-4.4,0-6.5L173.1,179.3z"/>
<path class="st26" d="M65.4,274.9v68.8c0,4.7,3.8,8.5,8.5,8.5h71.6"/>
<path class="st27" d="M65.4,270l3.2,6.5c-2-1-4.4-1-6.5,0L65.4,270z"/>
<path class="st27" d="M150.4,352.2l-6.5,3.2c1-2,1-4.4,0-6.5L150.4,352.2z"/>
<rect x="275.1" y="224.6" class="st7" width="79.4" height="45.4"/>
<rect x="275.1" y="224.6" class="st1" width="79.4" height="45.4"/>
<g>
	<defs>
		<rect id="SVGID_43_" x="0" width="651.8" height="396.8"/>
	</defs>
	<clipPath id="SVGID_44_">
		<use xlink:href="#SVGID_43_"  style="overflow:visible;"/>
	</clipPath>
	<g class="st28">
		<text transform="matrix(1 0 0 1 299.0498 244.7695)"><tspan x="0" y="0" class="st3 st4">G</tspan><tspan x="7.5" y="0" class="st3 st4">l</tspan><tspan x="9.7" y="0" class="st3 st4">u</tspan><tspan x="15.7" y="0" class="st3 st4">s</tspan><tspan x="20.2" y="0" class="st3 st4">t</tspan><tspan x="23.2" y="0" class="st3 st4">e</tspan><tspan x="29.2" y="0" class="st3 st4">r</tspan></text>
	</g>
</g>
<g>
	<defs>
		<rect id="SVGID_45_" x="0" width="651.8" height="396.8"/>
	</defs>
	<clipPath id="SVGID_46_">
		<use xlink:href="#SVGID_45_"  style="overflow:visible;"/>
	</clipPath>
	<g class="st29">
		<text transform="matrix(1 0 0 1 303.5 256.7998)"><tspan x="0" y="0" class="st3 st4">c</tspan><tspan x="5.2" y="0" class="st3 st4">li</tspan><tspan x="9.7" y="0" class="st3 st4">en</tspan><tspan x="20.2" y="0" class="st3 st4">t</tspan></text>
	</g>
</g>
<rect x="278" y="153.8" class="st7" width="79.4" height="45.4"/>
<rect x="278" y="153.8" class="st1" width="79.4" height="45.4"/>
<g>
	<defs>
		<rect id="SVGID_47_" x="0" width="651.8" height="396.8"/>
	</defs>
	<clipPath id="SVGID_48_">
		<use xlink:href="#SVGID_47_"  style="overflow:visible;"/>
	</clipPath>
	<g class="st30">
		<text transform="matrix(1 0 0 1 293.25 173.77)"><tspan x="0" y="0" class="st3 st4">P</tspan><tspan x="6.8" y="0" class="st3 st4">r</tspan><tspan x="9.8" y="0" class="st3 st4">o</tspan><tspan x="15.8" y="0" class="st3 st4">c</tspan><tspan x="20.3" y="0" class="st3 st4">e</tspan><tspan x="26.3" y="0" class="st3 st4">s</tspan><tspan x="30.8" y="0" class="st3 st4">s</tspan><tspan x="36.1" y="0" class="st3 st4">i</tspan><tspan x="38.3" y="0" class="st3 st4">n</tspan><tspan x="44.3" y="0" class="st3 st4">g</tspan></text>
	</g>
</g>
<g>
	<defs>
		<rect id="SVGID_49_" x="0" width="651.8" height="396.8"/>
	</defs>
	<clipPath id="SVGID_50_">
		<use xlink:href="#SVGID_49_"  style="overflow:visible;"/>
	</clipPath>
	<g class="st31">
		<text transform="matrix(1 0 0 1 302.1802 185.7998)"><tspan x="0" y="0" class="st3 st4">s</tspan><tspan x="5.2" y="0" class="st3 st4">e</tspan><tspan x="10.5" y="0" class="st3 st4">r</tspan><tspan x="14.2" y="0" class="st3 st4">v</tspan><tspan x="18.7" y="0" class="st3 st4">i</tspan><tspan x="21" y="0" class="st3 st4">c</tspan><tspan x="26.2" y="0" class="st3 st4">e</tspan></text>
	</g>
</g>
<line class="st26" x1="257.4" y1="179.3" x2="270.2" y2="179.3"/>
<path class="st27" d="M252.5,179.3l6.5-3.2c-1,2-1,4.4,0,6.5L252.5,179.3z"/>
<path class="st27" d="M275.1,179.3l-6.5,3.2c1-2,1-4.4,0-6.5L275.1,179.3z"/>
<g>
	<defs>
		<polyline id="SVGID_51_" points="0,0 651.8,0 651.8,396.8 0,396.8 		"/>
	</defs>
	<clipPath id="SVGID_52_">
		<use xlink:href="#SVGID_51_"  style="overflow:visible;"/>
	</clipPath>
	<line class="st32" x1="65.4" y1="219.7" x2="65.4" y2="206.9"/>
</g>
<g>
	<defs>
		<polyline id="SVGID_53_" points="0,0 651.8,0 651.8,396.8 0,396.8 		"/>
	</defs>
	<clipPath id="SVGID_54_">
		<use xlink:href="#SVGID_53_"  style="overflow:visible;"/>
	</clipPath>
	<path class="st33" d="M65.4,224.6l-3.2-6.5c2,1,4.4,1,6.5,0L65.4,224.6z"/>
</g>
<g>
	<defs>
		<polyline id="SVGID_55_" points="0,0 651.8,0 651.8,396.8 0,396.8 		"/>
	</defs>
	<clipPath id="SVGID_56_">
		<use xlink:href="#SVGID_55_"  style="overflow:visible;"/>
	</clipPath>
	<path class="st34" d="M65.4,202l3.2,6.5c-2-1-4.4-1-6.5,0L65.4,202z"/>
</g>
<g>
	<defs>
		<polyline id="SVGID_57_" points="0,0 651.8,0 651.8,396.8 0,396.8 		"/>
	</defs>
	<clipPath id="SVGID_58_">
		<use xlink:href="#SVGID_57_"  style="overflow:visible;"/>
	</clipPath>
	<line class="st35" x1="314.8" y1="219.7" x2="314.8" y2="206.9"/>
</g>
<g>
	<defs>
		<polyline id="SVGID_59_" points="0,0 651.8,0 651.8,396.8 0,396.8 		"/>
	</defs>
	<clipPath id="SVGID_60_">
		<use xlink:href="#SVGID_59_"  style="overflow:visible;"/>
	</clipPath>
	<path class="st36" d="M314.8,224.6l-3.2-6.5c2,1,4.4,1,6.5,0L314.8,224.6z"/>
</g>
<g>
	<defs>
		<polyline id="SVGID_61_" points="0,0 651.8,0 651.8,396.8 0,396.8 		"/>
	</defs>
	<clipPath id="SVGID_62_">
		<use xlink:href="#SVGID_61_"  style="overflow:visible;"/>
	</clipPath>
	<path class="st37" d="M314.8,202l3.2,6.5c-2-1-4.4-1-6.5,0L314.8,202z"/>
</g>
<g>
	<defs>
		<polyline id="SVGID_63_" points="0,0 651.8,0 651.8,396.7 0,396.7 		"/>
	</defs>
	<clipPath id="SVGID_64_">
		<use xlink:href="#SVGID_63_"  style="overflow:visible;"/>
	</clipPath>
	<line class="st38" x1="314.9" y1="304.8" x2="314.9" y2="274.9"/>
</g>
<g>
	<defs>
		<polyline id="SVGID_65_" points="0,0 651.8,0 651.8,396.7 0,396.7 		"/>
	</defs>
	<clipPath id="SVGID_66_">
		<use xlink:href="#SVGID_65_"  style="overflow:visible;"/>
	</clipPath>
	<path class="st39" d="M314.9,309.7l-3.2-6.5c2,1,4.4,1,6.5,0L314.9,309.7z"/>
</g>
<g>
	<defs>
		<polyline id="SVGID_67_" points="0,0 651.8,0 651.8,396.7 0,396.7 		"/>
	</defs>
	<clipPath id="SVGID_68_">
		<use xlink:href="#SVGID_67_"  style="overflow:visible;"/>
	</clipPath>
	<path class="st40" d="M314.9,270l3.2,6.5c-2-1-4.4-1-6.5,0L314.9,270z"/>
</g>
<rect x="422.5" y="128.3" class="st0" width="226.8" height="163"/>
<rect x="422.5" y="128.3" class="st1" width="226.8" height="163"/>
<g>
	<defs>
		<rect id="SVGID_69_" x="0" width="651.8" height="396.8"/>
	</defs>
	<clipPath id="SVGID_70_">
		<use xlink:href="#SVGID_69_"  style="overflow:visible;"/>
	</clipPath>
	<g class="st41">
		<text transform="matrix(1 0 0 1 507.9502 143.52)"><tspan x="0" y="0" class="st3 st4">C</tspan><tspan x="7.5" y="0" class="st3 st4">o</tspan><tspan x="12.7" y="0" class="st3 st4">m</tspan><tspan x="21" y="0" class="st3 st4">p</tspan><tspan x="26.9" y="0" class="st3 st4">u</tspan><tspan x="32.2" y="0" class="st3 st4">t</tspan><tspan x="35.2" y="0" class="st3 st4">e</tspan><tspan x="40.4" y="0" class="st3 st4"> </tspan><tspan x="43.4" y="0" class="st3 st4">n</tspan><tspan x="48.7" y="0" class="st3 st4">o</tspan><tspan x="54.7" y="0" class="st3 st4">de</tspan><tspan x="65.2" y="0" class="st3 st4"> </tspan><tspan x="68.2" y="0" class="st3 st4">n</tspan></text>
	</g>
</g>
<rect x="445.2" y="156.6" class="st7" width="79.4" height="45.4"/>
<rect x="445.2" y="156.6" class="st1" width="79.4" height="45.4"/>
<g>
	<defs>
		<rect id="SVGID_71_" x="0" width="651.8" height="396.8"/>
	</defs>
	<clipPath id="SVGID_72_">
		<use xlink:href="#SVGID_71_"  style="overflow:visible;"/>
	</clipPath>
</g>
<g>
	<defs>
		<rect id="SVGID_73_" x="0" width="651.8" height="396.8"/>
	</defs>
	<clipPath id="SVGID_74_">
		<use xlink:href="#SVGID_73_"  style="overflow:visible;"/>
	</clipPath>
</g>
<g>
	<defs>
		<rect id="SVGID_75_" x="0" width="651.8" height="396.8"/>
	</defs>
	<clipPath id="SVGID_76_">
		<use xlink:href="#SVGID_75_"  style="overflow:visible;"/>
	</clipPath>
</g>
<rect x="445.2" y="224.6" class="st7" width="79.4" height="45.4"/>
<rect x="445.2" y="224.6" class="st1" width="79.4" height="45.4"/>
<g>
	<defs>
		<rect id="SVGID_77_" x="0" width="651.8" height="396.8"/>
	</defs>
	<clipPath id="SVGID_78_">
		<use xlink:href="#SVGID_77_"  style="overflow:visible;"/>
	</clipPath>
	<g class="st42">
		<text transform="matrix(1 0 0 1 469.3203 244.7695)"><tspan x="0" y="0" class="st3 st4">G</tspan><tspan x="7.5" y="0" class="st3 st4">l</tspan><tspan x="9.7" y="0" class="st3 st4">u</tspan><tspan x="15.7" y="0" class="st3 st4">s</tspan><tspan x="20.2" y="0" class="st3 st4">t</tspan><tspan x="23.2" y="0" class="st3 st4">e</tspan><tspan x="29.2" y="0" class="st3 st4">r</tspan></text>
	</g>
</g>
<g>
	<defs>
		<rect id="SVGID_79_" x="0" width="651.8" height="396.8"/>
	</defs>
	<clipPath id="SVGID_80_">
		<use xlink:href="#SVGID_79_"  style="overflow:visible;"/>
	</clipPath>
	<g class="st43">
		<text transform="matrix(1 0 0 1 471.5498 256.7998)"><tspan x="0" y="0" class="st3 st4">s</tspan><tspan x="5.2" y="0" class="st3 st4">e</tspan><tspan x="10.5" y="0" class="st3 st4">r</tspan><tspan x="14.2" y="0" class="st3 st4">v</tspan><tspan x="18.7" y="0" class="st3 st4">e</tspan><tspan x="24.7" y="0" class="st3 st4">r</tspan></text>
	</g>
</g>
<rect x="547.3" y="224.6" class="st7" width="79.4" height="45.4"/>
<rect x="547.3" y="224.6" class="st1" width="79.4" height="45.4"/>
<g>
	<defs>
		<rect id="SVGID_81_" x="0" width="651.8" height="396.8"/>
	</defs>
	<clipPath id="SVGID_82_">
		<use xlink:href="#SVGID_81_"  style="overflow:visible;"/>
	</clipPath>
	<g class="st44">
		<text transform="matrix(1 0 0 1 571.4697 244.7695)"><tspan x="0" y="0" class="st3 st4">G</tspan><tspan x="7.5" y="0" class="st3 st4">l</tspan><tspan x="9.8" y="0" class="st3 st4">u</tspan><tspan x="15.8" y="0" class="st3 st4">s</tspan><tspan x="20.3" y="0" class="st3 st4">t</tspan><tspan x="23.3" y="0" class="st3 st4">e</tspan><tspan x="29.3" y="0" class="st3 st4">r</tspan></text>
	</g>
</g>
<g>
	<defs>
		<rect id="SVGID_83_" x="0" width="651.8" height="396.8"/>
	</defs>
	<clipPath id="SVGID_84_">
		<use xlink:href="#SVGID_83_"  style="overflow:visible;"/>
	</clipPath>
	<g class="st45">
		<text transform="matrix(1 0 0 1 575.9199 256.7998)"><tspan x="0" y="0" class="st3 st4">c</tspan><tspan x="5.3" y="0" class="st3 st4">li</tspan><tspan x="9.7" y="0" class="st3 st4">en</tspan><tspan x="20.3" y="0" class="st3 st4">t</tspan></text>
	</g>
</g>
<line class="st26" x1="529.5" y1="179.3" x2="542.4" y2="179.3"/>
<path class="st27" d="M524.6,179.3l6.5-3.2c-1,2-1,4.4,0,6.5L524.6,179.3z"/>
<path class="st27" d="M547.3,179.3l-6.5,3.2c1-2,1-4.4,0-6.5L547.3,179.3z"/>
<g>
	<defs>
		<polyline id="SVGID_85_" points="0,0 651.8,0 651.8,396.8 0,396.8 		"/>
	</defs>
	<clipPath id="SVGID_86_">
		<use xlink:href="#SVGID_85_"  style="overflow:visible;"/>
	</clipPath>
	<line class="st46" x1="587" y1="219.7" x2="587" y2="206.9"/>
</g>
<g>
	<defs>
		<polyline id="SVGID_87_" points="0,0 651.8,0 651.8,396.8 0,396.8 		"/>
	</defs>
	<clipPath id="SVGID_88_">
		<use xlink:href="#SVGID_87_"  style="overflow:visible;"/>
	</clipPath>
	<path class="st47" d="M587,224.6l-3.2-6.5c2,1,4.4,1,6.5,0L587,224.6z"/>
</g>
<g>
	<defs>
		<polyline id="SVGID_89_" points="0,0 651.8,0 651.8,396.8 0,396.8 		"/>
	</defs>
	<clipPath id="SVGID_90_">
		<use xlink:href="#SVGID_89_"  style="overflow:visible;"/>
	</clipPath>
	<path class="st48" d="M587,202l3.2,6.5c-2-1-4.4-1-6.5,0L587,202z"/>
</g>
<path class="st27" d="M407.2,206.5c0-0.6-0.5-1.1-1.1-1.1c-0.6,0-1.1,0.5-1.1,1.1c0,0.6,0.5,1.1,1.1,1.1
	C406.7,207.6,407.2,207.1,407.2,206.5z"/>
<path class="st27" d="M401,206.5c0-0.6-0.5-1.1-1.1-1.1c-0.6,0-1.1,0.5-1.1,1.1c0,0.6,0.5,1.1,1.1,1.1
	C400.5,207.6,401,207.1,401,206.5z"/>
<path class="st27" d="M394.8,206.5c0-0.6-0.5-1.1-1.1-1.1c-0.6,0-1.1,0.5-1.1,1.1c0,0.6,0.5,1.1,1.1,1.1
	C394.2,207.6,394.8,207.1,394.8,206.5z"/>
<ellipse class="st7" cx="484.9" cy="357.3" rx="17" ry="7.8"/>
<ellipse class="st18" cx="484.9" cy="357.3" rx="17" ry="7.8"/>
<ellipse class="st7" cx="484.9" cy="349.8" rx="17" ry="7.8"/>
<ellipse class="st18" cx="484.9" cy="349.8" rx="17" ry="7.8"/>
<ellipse class="st7" cx="484.9" cy="342.4" rx="17" ry="7.8"/>
<ellipse class="st18" cx="484.9" cy="342.4" rx="17" ry="7.8"/>
<path class="st7" d="M467.9,334.9c0-4.3,7.6-7.8,17-7.8c9.4,0,17,3.5,17,7.8s-7.6,7.8-17,7.8C475.5,342.7,467.9,339.2,467.9,334.9z"
	/>
<path class="st18" d="M467.9,334.9c0-4.3,7.6-7.8,17-7.8c9.4,0,17,3.5,17,7.8s-7.6,7.8-17,7.8C475.5,342.7,467.9,339.2,467.9,334.9z
	"/>
<g>
	<defs>
		<rect id="SVGID_91_" x="0" width="651.8" height="396.8"/>
	</defs>
	<clipPath id="SVGID_92_">
		<use xlink:href="#SVGID_91_"  style="overflow:visible;"/>
	</clipPath>
	<g class="st49">
		<text transform="matrix(1 0 0 1 453.1797 381)"><tspan x="0" y="0" class="st3 st4">B</tspan><tspan x="6.8" y="0" class="st3 st4">l</tspan><tspan x="9" y="0" class="st3 st4">o</tspan><tspan x="14.2" y="0" class="st3 st4">ck</tspan><tspan x="24.7" y="0" class="st3 st4"> </tspan><tspan x="27" y="0" class="st3 st4">d</tspan><tspan x="33" y="0" class="st3 st4">e</tspan><tspan x="38.2" y="0" class="st3 st4">v</tspan><tspan x="43.5" y="0" class="st3 st4">i</tspan><tspan x="45.7" y="0" class="st3 st4">c</tspan><tspan x="50.2" y="0" class="st3 st4">e</tspan><tspan x="56.2" y="0" class="st3 st4"> </tspan><tspan x="59.2" y="0" class="st3 st4">n</tspan></text>
	</g>
</g>
<ellipse class="st27" cx="353.9" cy="349.5" rx="1.1" ry="1.1"/>
<path class="st27" d="M348.8,349.5c0-0.6-0.5-1.1-1.1-1.1c-0.6,0-1.1,0.5-1.1,1.1s0.5,1.1,1.1,1.1
	C348.3,350.7,348.8,350.1,348.8,349.5z"/>
<path class="st27" d="M342.6,349.5c0-0.6-0.5-1.1-1.1-1.1c-0.6,0-1.1,0.5-1.1,1.1s0.5,1.1,1.1,1.1
	C342.1,350.7,342.6,350.1,342.6,349.5z"/>
<g>
	<defs>
		<polyline id="SVGID_93_" points="0,0 651.8,0 651.8,396.7 0,396.7 		"/>
	</defs>
	<clipPath id="SVGID_94_">
		<use xlink:href="#SVGID_93_"  style="overflow:visible;"/>
	</clipPath>
	<line class="st50" x1="484.9" y1="322.2" x2="484.9" y2="274.9"/>
</g>
<g>
	<defs>
		<polyline id="SVGID_95_" points="0,0 651.8,0 651.8,396.7 0,396.7 		"/>
	</defs>
	<clipPath id="SVGID_96_">
		<use xlink:href="#SVGID_95_"  style="overflow:visible;"/>
	</clipPath>
	<path class="st51" d="M484.9,327.1l-3.2-6.5c2,1,4.4,1,6.5,0L484.9,327.1z"/>
</g>
<g>
	<defs>
		<polyline id="SVGID_97_" points="0,0 651.8,0 651.8,396.7 0,396.7 		"/>
	</defs>
	<clipPath id="SVGID_98_">
		<use xlink:href="#SVGID_97_"  style="overflow:visible;"/>
	</clipPath>
	<path class="st52" d="M484.9,270l3.2,6.5c-2-1-4.4-1-6.5,0L484.9,270z"/>
</g>
<g>
	<defs>
		<polyline id="SVGID_99_" points="0,0 651.8,0 651.8,396.7 0,396.7 		"/>
	</defs>
	<clipPath id="SVGID_100_">
		<use xlink:href="#SVGID_99_"  style="overflow:visible;"/>
	</clipPath>
	<line class="st53" x1="587" y1="304.8" x2="587" y2="274.9"/>
</g>
<g>
	<defs>
		<polyline id="SVGID_101_" points="0,0 651.8,0 651.8,396.7 0,396.7 		"/>
	</defs>
	<clipPath id="SVGID_102_">
		<use xlink:href="#SVGID_101_"  style="overflow:visible;"/>
	</clipPath>
	<path class="st54" d="M587,309.7l-3.2-6.5c2,1,4.4,1,6.5,0L587,309.7z"/>
</g>
<g>
	<defs>
		<polyline id="SVGID_103_" points="0,0 651.8,0 651.8,396.7 0,396.7 		"/>
	</defs>
	<clipPath id="SVGID_104_">
		<use xlink:href="#SVGID_103_"  style="overflow:visible;"/>
	</clipPath>
	<path class="st55" d="M587,270l3.2,6.5c-2-1-4.4-1-6.5,0L587,270z"/>
</g>
<rect x="275.1" y="156.6" class="st7" width="79.4" height="45.4"/>
<rect x="275.1" y="156.6" class="st1" width="79.4" height="45.4"/>
<g>
	<defs>
		<rect id="SVGID_105_" x="0" width="651.8" height="396.8"/>
	</defs>
	<clipPath id="SVGID_106_">
		<use xlink:href="#SVGID_105_"  style="overflow:visible;"/>
	</clipPath>
	<g class="st56">
		<text transform="matrix(1 0 0 1 290.4199 176.6201)"><tspan x="0" y="0" class="st3 st4">P</tspan><tspan x="6.7" y="0" class="st3 st4">r</tspan><tspan x="9.7" y="0" class="st3 st4">o</tspan><tspan x="15.7" y="0" class="st3 st4">c</tspan><tspan x="20.2" y="0" class="st3 st4">e</tspan><tspan x="26.2" y="0" class="st3 st4">s</tspan><tspan x="30.7" y="0" class="st3 st4">s</tspan><tspan x="36" y="0" class="st3 st4">i</tspan><tspan x="38.2" y="0" class="st3 st4">n</tspan><tspan x="44.2" y="0" class="st3 st4">g</tspan></text>
	</g>
</g>
<g>
	<defs>
		<rect id="SVGID_107_" x="0" width="651.8" height="396.8"/>
	</defs>
	<clipPath id="SVGID_108_">
		<use xlink:href="#SVGID_107_"  style="overflow:visible;"/>
	</clipPath>
	<g class="st57">
		<text transform="matrix(1 0 0 1 296.8301 188.6499)"><tspan x="0" y="0" class="st3 st9">s</tspan><tspan x="5.2" y="0" class="st3 st9">e</tspan><tspan x="10.5" y="0" class="st3 st9">r</tspan><tspan x="14.2" y="0" class="st3 st9">v</tspan><tspan x="18.7" y="0" class="st3 st9">i</tspan><tspan x="20.9" y="0" class="st3 st9">c</tspan><tspan x="26.2" y="0" class="st3 st9">e</tspan><tspan x="31.4" y="0" class="st3 st9">s</tspan></text>
	</g>
</g>
<rect x="552.8" y="150.9" class="st7" width="79.4" height="45.4"/>
<rect x="552.8" y="150.9" class="st1" width="79.4" height="45.4"/>
<g>
	<defs>
		<rect id="SVGID_109_" x="0" width="651.8" height="396.8"/>
	</defs>
	<clipPath id="SVGID_110_">
		<use xlink:href="#SVGID_109_"  style="overflow:visible;"/>
	</clipPath>
	<g class="st58">
		<text transform="matrix(1 0 0 1 568.3799 170.9502)"><tspan x="0" y="0" class="st3 st9">P</tspan><tspan x="6.7" y="0" class="st3 st9">r</tspan><tspan x="9.7" y="0" class="st3 st9">o</tspan><tspan x="15.7" y="0" class="st3 st9">c</tspan><tspan x="20.2" y="0" class="st3 st9">e</tspan><tspan x="26.2" y="0" class="st3 st9">s</tspan><tspan x="30.7" y="0" class="st3 st9">s</tspan><tspan x="36" y="0" class="st3 st9">i</tspan><tspan x="38.2" y="0" class="st3 st9">n</tspan><tspan x="44.2" y="0" class="st3 st9">g</tspan></text>
	</g>
</g>
<g>
	<defs>
		<rect id="SVGID_111_" x="0" width="651.8" height="396.8"/>
	</defs>
	<clipPath id="SVGID_112_">
		<use xlink:href="#SVGID_111_"  style="overflow:visible;"/>
	</clipPath>
	<g class="st59">
		<text transform="matrix(1 0 0 1 577.2803 182.9702)"><tspan x="0" y="0" class="st3 st9">s</tspan><tspan x="5.3" y="0" class="st3 st9">e</tspan><tspan x="10.5" y="0" class="st3 st9">r</tspan><tspan x="14.3" y="0" class="st3 st9">v</tspan><tspan x="18.8" y="0" class="st3 st9">i</tspan><tspan x="21" y="0" class="st3 st9">c</tspan><tspan x="26.3" y="0" class="st3 st9">e</tspan></text>
	</g>
</g>
<rect x="549.9" y="153.8" class="st7" width="79.4" height="45.4"/>
<rect x="549.9" y="153.8" class="st1" width="79.4" height="45.4"/>
<g>
	<defs>
		<rect id="SVGID_113_" x="0" width="651.8" height="396.8"/>
	</defs>
	<clipPath id="SVGID_114_">
		<use xlink:href="#SVGID_113_"  style="overflow:visible;"/>
	</clipPath>
	<g class="st60">
		<text transform="matrix(1 0 0 1 565.5498 173.77)"><tspan x="0" y="0" class="st3 st4">P</tspan><tspan x="6.7" y="0" class="st3 st4">r</tspan><tspan x="9.7" y="0" class="st3 st4">o</tspan><tspan x="15.7" y="0" class="st3 st4">c</tspan><tspan x="20.2" y="0" class="st3 st4">e</tspan><tspan x="26.2" y="0" class="st3 st4">s</tspan><tspan x="30.7" y="0" class="st3 st4">s</tspan><tspan x="36" y="0" class="st3 st4">i</tspan><tspan x="38.2" y="0" class="st3 st4">n</tspan><tspan x="44.2" y="0" class="st3 st4">g</tspan></text>
	</g>
</g>
<g>
	<defs>
		<rect id="SVGID_115_" x="0" width="651.8" height="396.8"/>
	</defs>
	<clipPath id="SVGID_116_">
		<use xlink:href="#SVGID_115_"  style="overflow:visible;"/>
	</clipPath>
	<g class="st61">
		<text transform="matrix(1 0 0 1 574.4502 185.7998)"><tspan x="0" y="0" class="st3 st4">s</tspan><tspan x="5.2" y="0" class="st3 st4">e</tspan><tspan x="10.5" y="0" class="st3 st4">r</tspan><tspan x="14.2" y="0" class="st3 st4">v</tspan><tspan x="18.7" y="0" class="st3 st4">i</tspan><tspan x="21" y="0" class="st3 st4">c</tspan><tspan x="26.2" y="0" class="st3 st4">e</tspan></text>
	</g>
</g>
<rect x="547.3" y="156.6" class="st7" width="79.4" height="45.4"/>
<rect x="547.3" y="156.6" class="st1" width="79.4" height="45.4"/>
<g>
	<defs>
		<rect id="SVGID_117_" x="0" width="651.8" height="396.8"/>
	</defs>
	<clipPath id="SVGID_118_">
		<use xlink:href="#SVGID_117_"  style="overflow:visible;"/>
	</clipPath>
	<g class="st62">
		<text transform="matrix(1 0 0 1 562.8496 176.6201)"><tspan x="0" y="0" class="st3 st4">P</tspan><tspan x="6.8" y="0" class="st3 st4">r</tspan><tspan x="9.8" y="0" class="st3 st4">o</tspan><tspan x="15.8" y="0" class="st3 st4">c</tspan><tspan x="20.3" y="0" class="st3 st4">e</tspan><tspan x="26.3" y="0" class="st3 st4">s</tspan><tspan x="30.8" y="0" class="st3 st4">s</tspan><tspan x="36.1" y="0" class="st3 st4">i</tspan><tspan x="38.3" y="0" class="st3 st4">n</tspan><tspan x="44.3" y="0" class="st3 st4">g</tspan></text>
	</g>
</g>
<g>
	<defs>
		<rect id="SVGID_119_" x="0" width="651.8" height="396.8"/>
	</defs>
	<clipPath id="SVGID_120_">
		<use xlink:href="#SVGID_119_"  style="overflow:visible;"/>
	</clipPath>
	<g class="st63">
		<text transform="matrix(1 0 0 1 569.2803 188.6499)"><tspan x="0" y="0" class="st3 st9">s</tspan><tspan x="5.2" y="0" class="st3 st9">e</tspan><tspan x="10.5" y="0" class="st3 st9">r</tspan><tspan x="14.2" y="0" class="st3 st9">v</tspan><tspan x="18.7" y="0" class="st3 st9">i</tspan><tspan x="21" y="0" class="st3 st9">c</tspan><tspan x="26.2" y="0" class="st3 st9">e</tspan><tspan x="31.4" y="0" class="st3 st9">s</tspan></text>
	</g>
</g>
<g>
	<defs>
		<polyline id="SVGID_121_" points="0,0 651.8,0 651.8,396.8 0,396.8 		"/>
	</defs>
	<clipPath id="SVGID_122_">
		<use xlink:href="#SVGID_121_"  style="overflow:visible;"/>
	</clipPath>
	<line class="st64" x1="204.1" y1="151.7" x2="204.1" y2="80.4"/>
</g>
<g>
	<defs>
		<polyline id="SVGID_123_" points="0,0 651.8,0 651.8,396.8 0,396.8 		"/>
	</defs>
	<clipPath id="SVGID_124_">
		<use xlink:href="#SVGID_123_"  style="overflow:visible;"/>
	</clipPath>
	<path class="st65" d="M204.1,156.6l-3.2-6.5c2,1,4.4,1,6.5,0L204.1,156.6z"/>
</g>
<g>
	<defs>
		<polyline id="SVGID_125_" points="0,0 651.8,0 651.8,396.8 0,396.8 		"/>
	</defs>
	<clipPath id="SVGID_126_">
		<use xlink:href="#SVGID_125_"  style="overflow:visible;"/>
	</clipPath>
	<path class="st66" d="M204.1,75.5l3.2,6.5c-2-1-4.4-1-6.5,0L204.1,75.5z"/>
</g>
<path class="st26" d="M493.2,151.7V61.3c0-4.7-3.8-8.5-8.5-8.5H257.4"/>
<path class="st27" d="M493.2,156.6l-3.2-6.5c2,1,4.4,1,6.5,0L493.2,156.6z"/>
<path class="st27" d="M252.5,52.8l6.5-3.2c-1,2-1,4.4,0,6.5L252.5,52.8z"/>
<g>
	<defs>
		<rect id="SVGID_127_" x="0" width="651.8" height="396.8"/>
	</defs>
	<clipPath id="SVGID_128_">
		<use xlink:href="#SVGID_127_"  style="overflow:visible;"/>
	</clipPath>
	<g class="st67">
		<text transform="matrix(1 0 0 1 326.7998 102.3999)"><tspan x="0" y="0" class="st3 st4">E</tspan><tspan x="6.7" y="0" class="st3 st4">v</tspan><tspan x="12" y="0" class="st3 st4">en</tspan><tspan x="22.5" y="0" class="st3 st4">t </tspan><tspan x="28.5" y="0" class="st3 st4">b</tspan><tspan x="33.7" y="0" class="st3 st4">u</tspan><tspan x="39.7" y="0" class="st3 st4">s</tspan></text>
	</g>
</g>
<path class="st26" d="M222.1,151.7v-36.9c0-4.7,3.8-8.5,8.5-8.5h236.1c4.7,0,8.5,3.8,8.5,8.5v36.9"/>
<path class="st27" d="M222.1,156.6l-3.2-6.5c2,1,4.4,1,6.5,0L222.1,156.6z"/>
<path class="st27" d="M475.2,156.6l-3.2-6.5c2,1,4.4,1,6.5,0L475.2,156.6z"/>
<text transform="matrix(1 0 0 1 200.145 181.8711)" class="st3 st68">Steep</text>
<text transform="matrix(1 0 0 1 472.2749 181.8707)" class="st3 st68">Steep</text>
</svg>
